<svg width="20" height="20" viewBox="0 0 20 20" fill="none" xmlns="http://www.w3.org/2000/svg">
<path d="M2.08203 10.0007C2.08203 6.2687 2.08203 4.40273 3.2414 3.24335C4.40077 2.08398 6.26675 2.08398 9.9987 2.08398C13.7306 2.08398 15.5966 2.08398 16.756 3.24335C17.9154 4.40273 17.9154 6.2687 17.9154 10.0007C17.9154 13.7326 17.9154 15.5986 16.756 16.758C15.5966 17.9173 13.7306 17.9173 9.9987 17.9173C6.26675 17.9173 4.40077 17.9173 3.2414 16.758C2.08203 15.5986 2.08203 13.7326 2.08203 10.0007Z" stroke="#141B34" stroke-width="1.25" stroke-linejoin="round"/>
<path d="M5.625 9.98717V7.50378C5.625 7.26869 5.81796 7.07812 6.05597 7.07812H7.70414C8.07072 7.07812 8.44746 7.14119 8.72062 7.38259C9.01287 7.6408 9.29629 8.0408 9.28221 8.57543C9.26587 9.19893 8.81062 9.93584 8.14359 9.98717C7.47655 10.0385 6.84983 9.98717 5.625 9.98717ZM5.625 9.98717V12.4726C5.625 12.7077 5.81798 12.898 6.05599 12.9003C7.00655 12.9094 7.55962 12.9432 8.14359 12.8983C8.81062 12.8468 9.26587 12.1099 9.28221 11.4864C9.29629 10.9518 9.01287 10.5518 8.72062 10.2936C8.44746 10.0522 8.07072 9.98909 7.70414 9.98909L5.625 9.98717ZM13.9955 12.4709C13.6303 12.8248 11.8515 13.5241 11.2107 11.6834C11.1441 11.4997 11.0911 11.1033 11.122 10.7972M11.122 10.7972C11.1748 10.2758 11.4049 9.54459 12.2589 9.24618C13.4819 8.81884 14.251 10.0051 14.4501 10.7972H11.122ZM12.1566 7.50047H13.2901" stroke="#141B34" stroke-width="1.25" stroke-linecap="round" stroke-linejoin="round"/>
</svg>
