<svg width="20" height="20" viewBox="0 0 20 20" fill="none" xmlns="http://www.w3.org/2000/svg">
<path d="M2.08203 10.0007C2.08203 6.2687 2.08203 4.40273 3.2414 3.24335C4.40077 2.08398 6.26675 2.08398 9.9987 2.08398C13.7306 2.08398 15.5966 2.08398 16.756 3.24335C17.9154 4.40273 17.9154 6.2687 17.9154 10.0007C17.9154 13.7326 17.9154 15.5986 16.756 16.758C15.5966 17.9173 13.7306 17.9173 9.9987 17.9173C6.26675 17.9173 4.40077 17.9173 3.2414 16.758C2.08203 15.5986 2.08203 13.7326 2.08203 10.0007Z" stroke="#141B34" stroke-width="1.25" stroke-linejoin="round"/>
<path d="M13.75 10C13.75 12.0711 12.0711 13.75 10 13.75C7.92893 13.75 6.25 12.0711 6.25 10C6.25 7.92893 7.92893 6.25 10 6.25C12.0711 6.25 13.75 7.92893 13.75 10Z" stroke="#141B34" stroke-width="1.25"/>
<path d="M14.5895 5.41602H14.582" stroke="#141B34" stroke-width="1.66667" stroke-linecap="round" stroke-linejoin="round"/>
</svg>
