<svg width="20" height="20" viewBox="0 0 20 20" fill="none" xmlns="http://www.w3.org/2000/svg">
<path d="M2.08203 10.0007C2.08203 6.2687 2.08203 4.40273 3.2414 3.24335C4.40077 2.08398 6.26675 2.08398 9.9987 2.08398C13.7306 2.08398 15.5966 2.08398 16.756 3.24335C17.9154 4.40273 17.9154 6.2687 17.9154 10.0007C17.9154 13.7326 17.9154 15.5986 16.756 16.758C15.5966 17.9173 13.7306 17.9173 9.9987 17.9173C6.26675 17.9173 4.40077 17.9173 3.2414 16.758C2.08203 15.5986 2.08203 13.7326 2.08203 10.0007Z" stroke="#141B34" stroke-width="1.25" stroke-linecap="round" stroke-linejoin="round"/>
<path d="M14.1654 7.99185C13.259 4.6201 10.1424 4.83073 10.1424 4.83073C10.1424 4.83073 5.83203 4.54371 5.83203 10.0006C5.83203 15.4574 10.1424 15.1703 10.1424 15.1703C10.1424 15.1703 12.7043 15.341 13.878 12.9191C14.2611 11.8513 14.1654 9.71598 10.4297 9.71598C10.4297 9.71598 8.70561 9.71598 8.70561 11.1527C8.70561 11.7139 9.28028 12.3022 10.1424 12.3022C11.0044 12.3022 11.9649 11.7118 12.1539 10.5781C12.7286 7.12978 9.5677 6.84243 8.70561 8.27921" stroke="#141B34" stroke-width="1.25" stroke-linecap="round"/>
</svg>
