<svg width="20" height="20" viewBox="0 0 20 20" fill="none" xmlns="http://www.w3.org/2000/svg">
<path d="M10.0013 18.3327C14.6036 18.3327 18.3346 14.6017 18.3346 9.99935C18.3346 5.39697 14.6036 1.66602 10.0013 1.66602C5.39893 1.66602 1.66797 5.39697 1.66797 9.99935C1.66797 11.1484 1.90053 12.2432 2.32115 13.2391C2.55362 13.7894 2.66985 14.0647 2.68424 14.2727C2.69864 14.4807 2.63742 14.7094 2.51499 15.167L1.66797 18.3327L4.83361 17.4857C5.2912 17.3633 5.52 17.302 5.72799 17.3164C5.93598 17.3308 6.21118 17.447 6.76159 17.6795C7.75751 18.1001 8.85222 18.3327 10.0013 18.3327Z" stroke="#141B34" stroke-width="1.25" stroke-linejoin="round"/>
<path d="M10.7353 10C11.7099 10 12.5 10.8395 12.5 11.875C12.5 12.9105 11.7099 13.75 10.7353 13.75H8.6765C8.12188 13.75 7.84458 13.75 7.67229 13.581C7.5 13.4121 7.5 13.1401 7.5 12.5962V10M10.7353 10C11.7099 10 12.5 9.1605 12.5 8.125C12.5 7.08947 11.7099 6.25 10.7353 6.25H8.6765C8.12188 6.25 7.84458 6.25 7.67229 6.41898C7.5 6.58795 7.5 6.85992 7.5 7.40385V10M10.7353 10H7.5" stroke="#141B34" stroke-width="1.25" stroke-linecap="round" stroke-linejoin="round"/>
</svg>
